HIERARCHY
ROOT SpineBase
{
  OFFSET 0.000000 0.000000 0.000000
  CHANNELS 6 Xposition Yposition Zposition Zrotation Xrotation Yrotation
  JOINT SpineMid
  {
    OFFSET 0.000000 25.514097 0.000000
    CHANNELS 3 Zrotation Xrotation Yrotation
    JOINT SpineShoulder
    {
      OFFSET -0.151925 19.051881 -0.637315
      CHANNELS 3 Zrotation Xrotation Yrotation
      JOINT Neck
      {
        OFFSET -0.067079 6.346360 -0.490781
        CHANNELS 3 Zrotation Xrotation Yrotation
        JOINT Head
        {
          OFFSET -2.747939 11.617925 0.699760
          CHANNELS 3 Zrotation Xrotation Yrotation
          End Site
          {
            OFFSET 0 0 0
          }
        }
      }
      JOINT ShoulderLeft
      {
        OFFSET -12.819925 -2.842684 4.547237
        CHANNELS 3 Zrotation Xrotation Yrotation
        JOINT ElbowLeft
        {
          OFFSET -1.191944 -21.881010 1.111274
          CHANNELS 3 Zrotation Xrotation Yrotation
          JOINT WristLeft
          {
            OFFSET -1.014949 -19.849096 -4.788137
            CHANNELS 3 Zrotation Xrotation Yrotation
            JOINT HandLeft
            {
              OFFSET 0.211755 -5.143112 -2.271321
              CHANNELS 3 Zrotation Xrotation Yrotation
              JOINT HandTipLeft
              {
                OFFSET -0.839810 -6.143770 -2.844388
                CHANNELS 3 Zrotation Xrotation Yrotation
                End Site
                {
                  OFFSET 0 0 0
                }
              }
              JOINT ThumbLeft
              {
                OFFSET -3.036773 -1.265953 -2.635401
                CHANNELS 3 Zrotation Xrotation Yrotation
                End Site
                {
                  OFFSET 0 0 0
                }
              }
            }
          }
        }
      }
      JOINT ShoulderRight
      {
        OFFSET 11.776927 -1.458285 -5.850914
        CHANNELS 3 Zrotation Xrotation Yrotation
        JOINT ElbowRight
        {
          OFFSET 5.170858 -21.189514 -1.518090
          CHANNELS 3 Zrotation Xrotation Yrotation
          JOINT WristRight
          {
            OFFSET -2.301720 -19.463986 -7.454837
            CHANNELS 3 Zrotation Xrotation Yrotation
            JOINT HandRight
            {
              OFFSET -1.699819 -7.055242 -1.498997
              CHANNELS 3 Zrotation Xrotation Yrotation
              JOINT HandTipRight
              {
                OFFSET -1.398001 -5.757839 -2.733756
                CHANNELS 3 Zrotation Xrotation Yrotation
                End Site
                {
                  OFFSET 0 0 0
                }
              }
              JOINT ThumbRight
              {
                OFFSET 1.788577 -2.162720 -2.728578
                CHANNELS 3 Zrotation Xrotation Yrotation
                End Site
                {
                  OFFSET 0 0 0
                }
              }
            }
          }
        }
      }
    }
  }
  JOINT HipLeft
  {
    OFFSET -5.634136 0.453412 -1.218216
    CHANNELS 3 Zrotation Xrotation Yrotation
    JOINT KneeLeft
    {
      OFFSET 4.808055 -35.286696 2.092064
      CHANNELS 3 Zrotation Xrotation Yrotation
      JOINT AnkleLeft
      {
        OFFSET 5.883406 -32.652308 4.249778
        CHANNELS 3 Zrotation Xrotation Yrotation
        JOINT FootLeft
        {
          OFFSET 0.518499 -6.525808 -5.698736
          CHANNELS 3 Zrotation Xrotation Yrotation
          End Site
          {
            OFFSET 0 0 0
          }
        }
      }
    }
  }
  JOINT HipRight
  {
    OFFSET 5.233503 1.248107 -4.695463
    CHANNELS 3 Zrotation Xrotation Yrotation
    JOINT KneeRight
    {
      OFFSET 6.701583 -31.640173 -2.245752
      CHANNELS 3 Zrotation Xrotation Yrotation
      JOINT AnkleRight
      {
        OFFSET 3.284518 -34.690522 4.708448
        CHANNELS 3 Zrotation Xrotation Yrotation
        JOINT FootRight
        {
          OFFSET -4.486536 -5.160290 -1.503073
          CHANNELS 3 Zrotation Xrotation Yrotation
          End Site
          {
            OFFSET 0 0 0
          }
        }
      }
    }
  }
}
MOTION
Frames: 10
Frame Time: 0.033333
29.377505 72.986329 372.050239 12.081973 -19.566738 40.622320 0.534377 1.685412 -38.373987 -0.204375 0.375659 0.417652 5.957443 8.748187 -5.814892 0.000000 0.000000 0.000000 0.297826 -9.514046 2.308019 -4.812647 -0.176113 -0.919745 -7.009013 -8.008305 0.776441 3.182349 15.386711 1.778176 0.000000 0.000000 0.000000 0.000000 0.000000 0.000000 -33.248183 29.147407 14.909085 -89.374991 2.538480 32.280657 -3.534288 35.372766 9.035338 4.578676 -51.176220 -12.555997 0.000000 0.000000 0.000000 0.000000 0.000000 0.000000 7.946935 34.868919 -40.060851 4.562432 -8.161837 -0.201603 -12.207302 18.155766 11.725379 0.000000 0.000000 0.000000 -7.468267 24.770136 -35.094692 9.011726 8.770497 0.332482 -1.851925 -3.312360 -0.925375 0.000000 0.000000 0.000000
29.061909 73.421855 371.955018 11.499817 -19.445374 40.674635 0.509830 1.691792 -38.545320 -0.423218 0.424443 0.408585 7.862364 11.204564 -5.909979 0.000000 0.000000 0.000000 0.205534 -10.427881 2.385318 -3.953421 -0.581956 -1.010213 -4.353470 -15.574160 -1.556945 -0.940854 20.652799 5.859225 0.000000 0.000000 0.000000 0.000000 0.000000 0.000000 -32.571970 30.801721 15.619006 -94.819453 1.638992 31.690622 -2.994297 36.774691 12.235787 8.108310 -54.920274 -13.554947 0.000000 0.000000 0.000000 0.000000 0.000000 0.000000 8.532104 33.867728 -40.338749 4.484927 -7.720688 -0.114547 -9.048064 18.216237 8.605991 0.000000 0.000000 0.000000 -6.426436 23.802441 -35.784022 8.337922 9.052284 0.449604 -6.107805 -9.214357 4.511204 0.000000 0.000000 0.000000
28.595346 73.887321 371.789209 10.762613 -19.150518 38.105027 0.410709 1.574675 -36.140112 -0.580238 0.435171 0.394938 8.486381 14.215864 -5.589579 0.000000 0.000000 0.000000 0.473363 -12.224427 2.573865 -3.540781 -0.660355 -0.990416 -0.698703 -19.147741 -4.564082 -6.688930 22.257657 11.601110 0.000000 0.000000 0.000000 0.000000 0.000000 0.000000 -31.837669 32.094960 16.144435 -96.376903 1.625657 30.225822 -0.667744 37.685119 13.273394 4.748652 -55.600363 -16.138963 0.000000 0.000000 0.000000 0.000000 0.000000 0.000000 7.184178 31.722172 -37.494477 3.516812 -6.336944 -0.128197 -3.746078 13.214627 3.553587 0.000000 0.000000 0.000000 -5.775232 22.775908 -33.792883 7.405859 8.571765 0.488290 -8.303643 -16.370596 10.282681 0.000000 0.000000 0.000000
28.172602 74.212156 371.173581 10.074534 -18.086323 36.371960 -0.051675 0.901700 -34.567567 -0.700893 0.407568 0.382301 7.538008 17.673666 -4.689631 0.000000 0.000000 0.000000 0.234699 -13.551257 2.675968 -3.150284 0.605889 -0.985305 3.001227 -18.206127 -7.220627 -11.635594 18.871212 16.257375 0.000000 0.000000 0.000000 0.000000 0.000000 0.000000 -30.208999 33.233458 16.066386 -94.357353 2.580941 27.887976 1.778980 36.539882 10.322968 1.255106 -51.671901 -14.706225 0.000000 0.000000 0.000000 0.000000 0.000000 0.000000 5.368422 29.345300 -35.416536 3.387030 -5.408261 -0.072668 -1.916974 11.003419 1.738043 0.000000 0.000000 0.000000 -6.163221 20.450976 -32.673895 7.057696 9.434003 0.692193 -6.209923 -27.759918 19.757287 0.000000 0.000000 0.000000
27.767941 74.553717 370.782600 9.339576 -17.530783 34.740689 -0.315781 0.544577 -33.085248 -0.837192 0.479867 0.360223 7.193312 21.358850 -3.868638 0.000000 0.000000 0.000000 -0.167686 -14.225242 2.655717 -2.595380 2.597441 -1.053950 5.489390 -13.083874 -8.535231 -11.490411 9.107141 16.460331 0.000000 0.000000 0.000000 0.000000 0.000000 0.000000 -28.730903 34.748406 16.288729 -94.765931 3.789155 26.644734 0.704623 38.614653 12.678411 1.343484 -51.378628 -13.954634 0.000000 0.000000 0.000000 0.000000 0.000000 0.000000 5.166744 27.772435 -33.885314 2.353245 -5.449747 -0.288646 0.125143 5.379544 -0.093562 0.000000 0.000000 0.000000 -5.435516 19.251270 -31.617348 5.685484 8.669801 0.688711 -8.477356 -18.941785 12.633109 0.000000 0.000000 0.000000
27.519012 74.747555 370.323203 8.753324 -16.787067 33.292004 -0.556389 0.680766 -31.767942 -0.882510 0.694958 0.317157 6.809658 23.271999 -2.962449 0.000000 0.000000 0.000000 -0.569067 -15.217078 2.596495 -2.037026 5.783098 -1.197712 4.329346 -8.949924 -6.832847 -7.705408 2.472711 12.892802 0.000000 0.000000 0.000000 0.000000 0.000000 0.000000 -26.771577 35.472798 15.944792 -95.810095 4.488376 25.299774 -4.293066 42.326296 18.829496 8.132349 -53.064163 -9.801824 0.000000 0.000000 0.000000 0.000000 0.000000 0.000000 3.969097 27.158693 -32.199895 2.976027 -5.890159 -0.279982 -0.319364 7.930975 0.430853 0.000000 0.000000 0.000000 -5.167146 18.106429 -30.569501 4.697691 7.771049 0.632826 -1.783613 -12.842077 8.034699 0.000000 0.000000 0.000000
27.406047 74.864952 369.810668 8.232535 -15.821193 32.475315 -0.767937 0.925865 -31.085567 -0.758723 0.871141 0.266587 6.519815 24.222070 -2.173674 0.000000 0.000000 0.000000 -0.989066 -16.108907 2.498129 -1.521116 9.568101 -1.392822 1.194609 -5.352362 -3.810928 -3.072610 -2.773325 8.338364 0.000000 0.000000 0.000000 0.000000 0.000000 0.000000 -26.883472 36.382205 16.767748 -95.405478 5.495513 23.169411 -11.568130 42.423279 22.162385 20.522150 -50.744152 -0.125062 0.000000 0.000000 0.000000 0.000000 0.000000 0.000000 2.882124 26.217425 -31.204522 3.346666 -6.271024 -0.334208 -1.676858 9.972627 1.968816 0.000000 0.000000 0.000000 -5.112525 16.874158 -30.086947 3.609001 6.744416 0.526277 3.562585 -1.745342 -1.563447 0.000000 0.000000 0.000000
27.376716 74.843521 369.323234 7.671147 -14.709292 32.488704 -0.869990 1.389597 -31.254915 -0.727854 0.993637 0.224069 6.892593 23.862316 -1.656197 0.000000 0.000000 0.000000 -1.062405 -14.978206 2.166290 -1.338860 10.525844 -1.288491 -3.508226 -4.356319 -0.272921 3.996600 -5.455409 2.542284 0.000000 0.000000 0.000000 0.000000 0.000000 0.000000 -27.294372 36.797983 17.658679 -94.475691 6.389168 21.071196 -21.508814 37.693841 19.685345 40.330527 -39.224661 15.679568 0.000000 0.000000 0.000000 0.000000 0.000000 0.000000 2.139212 25.231307 -31.137673 3.744868 -6.744054 -0.406913 -2.647810 9.219125 3.067074 0.000000 0.000000 0.000000 -5.067990 15.517071 -30.434397 2.548408 5.826118 0.407775 10.787269 11.208223 -14.813498 0.000000 0.000000 0.000000
27.265681 74.858123 368.871422 6.861264 -13.506367 32.240669 -0.816537 1.794927 -31.214835 -0.670830 1.060589 0.181431 8.046444 22.944454 -1.437371 0.000000 0.000000 0.000000 -0.672293 -13.120374 1.811949 -1.348588 10.925652 -1.198545 -7.731203 -5.442212 2.381424 12.832197 -3.295930 -4.448607 0.000000 0.000000 0.000000 0.000000 0.000000 0.000000 -29.403881 36.628828 19.260580 -91.993165 6.943673 18.960360 -34.049014 29.434083 9.994535 57.749467 -18.205442 26.828174 0.000000 0.000000 0.000000 0.000000 0.000000 0.000000 1.537150 23.572222 -30.916001 4.638445 -6.328502 -0.188124 -10.577429 7.070344 9.341212 0.000000 0.000000 0.000000 -4.587682 13.972319 -30.634104 1.226751 4.646122 0.250996 17.992253 21.989238 -27.846428 0.000000 0.000000 0.000000
27.086998 74.936398 368.504622 6.079343 -12.356379 31.592335 -0.656419 2.002425 -30.762935 -0.536917 1.023859 0.149604 8.211305 22.583387 -0.957615 0.000000 0.000000 0.000000 -0.579504 -11.347083 1.516491 -1.325548 10.340960 -1.050722 -10.127135 -4.160502 3.888793 17.665402 -4.862743 -7.455697 0.000000 0.000000 0.000000 0.000000 0.000000 0.000000 -33.022406 35.604887 21.068014 -88.328358 6.865855 17.480341 -50.261369 17.031920 -16.651275 72.628690 22.658107 31.511816 0.000000 0.000000 0.000000 0.000000 0.000000 0.000000 1.360167 21.266568 -30.445993 4.089888 -5.729406 -0.224611 -14.331432 9.788488 13.085333 0.000000 0.000000 0.000000 -4.059543 12.557473 -30.369256 -0.101543 3.238401 0.034595 24.057196 31.993694 -40.666810 0.000000 0.000000 0.000000
